<?xml version="1.0" encoding="UTF-8"?>
<svg width="434px" height="194px" viewBox="-5 -5 444 220" version="1.1" xmlns="http://www.w3.org/2000/svg" xmlns:xlink="http://www.w3.org/1999/xlink">
  <title>404-lines</title>
  <desc>Created with Sketch.</desc>
  <defs></defs>
  <g id="404-Page" stroke="#000679" stroke-width="2" fill="none" fill-rule="evenodd" transform="translate(-503.000000, -402.000000)">
    <g id="404-lines" transform="translate(503.000000, 402.000000)" stroke="#000679">
      <polyline id="Stroke-1" points="96.0683 77.36 96.0683 7.228 79.3443 7.228 0.5003 125.254 0.5003 132.422 133.3403 132.422"></polyline>
      <path d="M96.0683,189.763 L96.0683,106.519" id="Stroke-3"></path>
      <circle id="Oval-Copy" cx="96.5" cy="82.5" r="5.5"></circle>
      <path d="M360.0515,132.422 L433.7005,132.422" id="Stroke-4"></path>
      <polyline id="Stroke-6" points="396.4293 168.3373 396.4293 7.2273 379.7053 7.2273 300.8613 125.2543 300.8613 132.4223 332.5423 132.4223"></polyline>
      <circle id="Oval" cx="215.5" cy="174.5" r="5.5"></circle>
      <circle id="Oval" cx="337.5" cy="132.5" r="5.5"></circle>
      <path d="M220.4989,193.004 C187.3059,193.004 160.1719,163.51 160.1719,130.317 L160.1719,60.602 C160.1719,27.409 187.0799,0.5 220.2729,0.5 L220.2739,0.5 C253.4669,0.5 280.3749,27.409 280.3749,60.602 L280.3749,123.317 C280.3749,149.337 253.8319,176.004 221.1659,174.671" id="Stroke-7"></path>
    </g>
  </g>
</svg>