<?xml version="1.0" encoding="UTF-8"?>
<svg width="821px" height="684px" viewBox="0 0 821 684" version="1.1" xmlns="http://www.w3.org/2000/svg" xmlns:xlink="http://www.w3.org/1999/xlink">
    <!-- Generator: Sketch 47.1 (45422) - http://www.bohemiancoding.com/sketch -->
    <title>aptiv-lines-masthead</title>
    <desc>Created with Sketch.</desc>
    <defs></defs>
    <g id="Careers" stroke="none" stroke-width="1" fill="none" fill-rule="evenodd">
        <g transform="translate(-506.000000, -155.000000)" id="aptiv-lines-masthead" stroke="#2B2B2B">
            <g transform="translate(507.000000, 156.000000)">
                <path d="M304,203 L815,317" id="Stroke-1"></path>
                <path d="M304,203 L708,677" id="Stroke-2"></path>
                <path d="M303,203 L7,523" id="Stroke-3"></path>
                <path d="M303,203 L8,209" id="Stroke-4"></path>
                <path d="M303,202 L5,5" id="Stroke-5"></path>
                <path d="M5,5 L814,318" id="Stroke-6"></path>
                <path d="M814,318 L7,522" id="Stroke-7"></path>
                <path d="M814,318 L604,71" id="Stroke-8"></path>
                <g id="Group-37" fill="#000000">
                    <path d="M12.7086207,208.650552 C12.7086207,211.251384 10.6008724,213.360497 8.00172414,213.360497 C5.40257586,213.360497 3.29482759,211.251384 3.29482759,208.650552 C3.29482759,206.049721 5.40257586,203.940608 8.00172414,203.940608 C10.6008724,203.940608 12.7086207,206.049721 12.7086207,208.650552 Z" id="Stroke-11"></path>
                    <path d="M308.301724,202.998619 C308.301724,205.59945 306.193976,207.708564 303.594828,207.708564 C300.995679,207.708564 298.887931,205.59945 298.887931,202.998619 C298.887931,200.397787 300.995679,198.288674 303.594828,198.288674 C306.193976,198.288674 308.301724,200.397787 308.301724,202.998619 Z" id="Stroke-15"></path>
                    <path d="M818.52931,317.921271 C818.52931,320.522102 816.421562,322.631215 813.822414,322.631215 C811.223266,322.631215 809.115517,320.522102 809.115517,317.921271 C809.115517,315.320439 811.223266,313.211326 813.822414,313.211326 C816.421562,313.211326 818.52931,315.320439 818.52931,317.921271 Z" id="Stroke-19"></path>
                    <path d="M712.153448,676.819061 C712.153448,679.419892 710.0457,681.529006 707.446552,681.529006 C704.847403,681.529006 702.739655,679.419892 702.739655,676.819061 C702.739655,674.218229 704.847403,672.109116 707.446552,672.109116 C710.0457,672.109116 712.153448,674.218229 712.153448,676.819061 Z" id="Stroke-23"></path>
                    <path d="M9.88448276,5.18093923 C9.88448276,7.78177072 7.77673448,9.89088398 5.17758621,9.89088398 C2.57843793,9.89088398 0.470689655,7.78177072 0.470689655,5.18093923 C0.470689655,2.58010773 2.57843793,0.470994475 5.17758621,0.470994475 C7.77673448,0.470994475 9.88448276,2.58010773 9.88448276,5.18093923 Z" id="Stroke-27"></path>
                    <path d="M11.7672414,522.332873 C11.7672414,524.933704 9.6594931,527.042818 7.06034483,527.042818 C4.46119655,527.042818 2.35344828,524.933704 2.35344828,522.332873 C2.35344828,519.732041 4.46119655,517.622928 7.06034483,517.622928 C9.6594931,517.622928 11.7672414,519.732041 11.7672414,522.332873 Z" id="Stroke-31"></path>
                    <path d="M608.601724,71.1201657 C608.601724,73.7209972 606.493976,75.8301105 603.894828,75.8301105 C601.295679,75.8301105 599.187931,73.7209972 599.187931,71.1201657 C599.187931,68.5193343 601.295679,66.410221 603.894828,66.410221 C606.493976,66.410221 608.601724,68.5193343 608.601724,71.1201657 Z" id="Stroke-35"></path>
                </g>
            </g>
        </g>
    </g>
</svg>