<?xml version="1.0" encoding="UTF-8"?>
<svg style="display: none;"> <symbol id="illust_car" viewBox="0 0 24 24"> <path d="M22,9.6l0.7-1.1h0.6c0.4,0,0.7-0.3,0.7-0.7S23.7,7,23.3,7h-1c-0.2,0-0.5,0.1-0.6,0.3l-0.6,1L20.2,5c-0.4-1.3-1.6-2.2-2.9-2.2H6.7C5.4,2.8,4.2,3.7,3.8,5L2.9,8.3l-0.6-1C2.2,7.2,1.9,7,1.7,7h-1C0.3,7,0,7.3,0,7.7s0.3,0.7,0.7,0.7h0.6L2,9.6c-1.2,0.4-2,1.5-2,2.8v5.2c0,0.4,0.3,0.7,0.7,0.7h1.2v1.2c0,0.9,0.7,1.6,1.6,1.6h1.9c0.9,0,1.6-0.7,1.6-1.6v-1.2h9.8v1.2c0,0.9,0.7,1.6,1.6,1.6h1.9c0.9,0,1.6-0.7,1.6-1.6v-1.2h1.2c0.4,0,0.7-0.3,0.7-0.7v-5.2C24,11.1,23.2,10,22,9.6z M5.2,5.4C5.4,4.7,6,4.2,6.7,4.2h10.5c0.7,0,1.4,0.5,1.6,1.2l1.1,4h-1.2c-0.3-1.6-1.7-2.8-3.4-2.8c-1.7,0-3.1,1.2-3.4,2.8H4L5.2,5.4z M17.3,9.4h-4c0.3-0.8,1.1-1.4,2-1.4C16.2,8,17,8.6,17.3,9.4z M5.7,19.5c0,0.1-0.1,0.2-0.2,0.2H3.6c-0.1,0-0.2-0.1-0.2-0.2v-1.2h2.3V19.5z M14.1,17H9.9v-2h4.2V17z M20.7,19.5c0,0.1-0.1,0.2-0.2,0.2h-1.9c-0.1,0-0.2-0.1-0.2-0.2v-1.2h2.3V19.5z M22.6,17h-7.1v-2.7c0-0.4-0.3-0.7-0.7-0.7H9.2c-0.4,0-0.7,0.3-0.7,0.7V17H1.4v-4.5c0-0.9,0.7-1.6,1.6-1.6h0l0,0l0,0h17.8l0,0l0,0h0c0.9,0,1.6,0.7,1.6,1.6V17z M19,11.8c-1.2,0-2.1,0.9-2.1,2.1S17.9,16,19,16c1.2,0,2.1-0.9,2.1-2.1S20.2,11.8,19,11.8z M19,14.6c-0.4,0-0.7-0.3-0.7-0.7s0.3-0.7,0.7-0.7c0.4,0,0.7,0.3,0.7,0.7S19.4,14.6,19,14.6z M5,11.8c-1.2,0-2.1,0.9-2.1,2.1S3.8,16,5,16s2.1-0.9,2.1-2.1S6.1,11.8,5,11.8z M5,14.6c-0.4,0-0.7-0.3-0.7-0.7s0.3-0.7,0.7-0.7s0.7,0.3,0.7,0.7S5.4,14.6,5,14.6z"></path> </symbol> </svg>
